<svg width="53" height="40" fill="none" xmlns="http://www.w3.org/2000/svg"><g clip-path="url(#a)" fill="#fff"><path d="M13.162 31.92a4.045 4.045 0 0 0-4.04 4.04 4.045 4.045 0 0 0 4.04 4.04 4.045 4.045 0 0 0 4.04-4.04 4.045 4.045 0 0 0-4.04-4.04Zm0 5.656a1.618 1.618 0 0 1-1.616-1.616c0-.891.725-1.616 1.616-1.616.89 0 1.616.725 1.616 1.616 0 .892-.725 1.616-1.616 1.616ZM25.121 31.92a4.045 4.045 0 0 0-4.04 4.04A4.045 4.045 0 0 0 25.12 40a4.045 4.045 0 0 0 4.04-4.04 4.045 4.045 0 0 0-4.04-4.04Zm0 5.656a1.618 1.618 0 0 1-1.616-1.616c0-.891.725-1.616 1.616-1.616.892 0 1.616.725 1.616 1.616 0 .892-.724 1.616-1.616 1.616ZM32.13 15.892c-.23-.29-.579-.458-.948-.458H9.958L8.856 9.866a1.212 1.212 0 0 0-.97-.957L3.037 8.02a1.212 1.212 0 1 0-.437 2.385l4.038.74 3.557 17.98c.112.567.61.976 1.19.976h16.969c.564 0 1.053-.389 1.18-.94l2.829-12.242a1.211 1.211 0 0 0-.233-1.027Zm-4.74 11.785H12.38l-1.943-9.818h19.22l-2.267 9.818Z"/></g><path d="M32 9a9 9 0 0 1 9-9h3a9 9 0 1 1 0 18h-3a9 9 0 0 1-9-9Z" fill="#fff"/><path d="M39.871 13a1.35 1.35 0 0 1-.682-.176 1.422 1.422 0 0 1-.473-.484 1.33 1.33 0 0 1-.176-.671V6.422c0-.25.059-.473.176-.671.117-.205.275-.367.473-.484.205-.125.433-.187.682-.187h5.335c.242 0 .462.062.66.187.205.117.367.279.484.484.125.198.187.422.187.671v5.247c0 .242-.062.466-.187.671a1.39 1.39 0 0 1-.484.484 1.27 1.27 0 0 1-.66.176h-5.335Zm-.319-.902h5.654c.117 0 .216-.04.297-.121a.422.422 0 0 0 .132-.308V7.082l-6.083 5.016Zm-.11-1.089 6.072-5.016h-5.643a.422.422 0 0 0-.308.132.404.404 0 0 0-.12.297v4.587Z" fill="#141820"/><defs><clipPath id="a"><path fill="#fff" transform="translate(1 8)" d="M0 0h32v32H0z"/></clipPath></defs></svg>