<svg width="480" height="219" fill="none" xmlns="http://www.w3.org/2000/svg"><g clip-path="url(#a)" fill="#fff"><path d="M240 1c-35.289 0-64 28.711-64 64s28.711 64 64 64 64-28.711 64-64-28.711-64-64-64Zm0 116.869c-29.151 0-52.87-23.719-52.87-52.87 0-29.15 23.719-52.868 52.87-52.868 29.15 0 52.869 23.718 52.869 52.869 0 29.15-23.719 52.869-52.869 52.869Z"/><path d="M269.796 35.21a2.762 2.762 0 0 0-3.067-.59l-38.956 16.695a2.788 2.788 0 0 0-1.464 1.464l-16.695 38.956a2.78 2.78 0 0 0 .589 3.067 2.824 2.824 0 0 0 1.97.806c.368 0 .741-.078 1.097-.222l38.956-16.696a2.807 2.807 0 0 0 1.464-1.463l16.696-38.957a2.79 2.79 0 0 0-.59-3.06ZM240 70.564A5.574 5.574 0 0 1 234.435 65 5.574 5.574 0 0 1 240 59.435 5.575 5.575 0 0 1 245.565 65 5.574 5.574 0 0 1 240 70.565Z"/></g><path d="M92.961 206a5.8 5.8 0 0 1-2.928-.768 5.799 5.799 0 0 1-2.064-2.064 5.8 5.8 0 0 1-.768-2.928V177.2c0-1.056.256-2.016.768-2.88.512-.896 1.2-1.6 2.064-2.112a5.8 5.8 0 0 1 2.928-.768h23.04c1.056 0 2.016.256 2.88.768a5.578 5.578 0 0 1 2.112 2.112c.512.864.768 1.824.768 2.88v23.04a5.8 5.8 0 0 1-.768 2.928 5.686 5.686 0 0 1-2.112 2.064c-.864.512-1.824.768-2.88.768h-23.04Zm0-3.888h23.04c.512 0 .944-.176 1.296-.528.384-.384.576-.832.576-1.344V177.2a1.69 1.69 0 0 0-.576-1.296 1.69 1.69 0 0 0-1.296-.576h-23.04c-.512 0-.96.192-1.344.576a1.762 1.762 0 0 0-.528 1.296v23.04c0 .512.176.96.528 1.344.384.352.832.528 1.344.528Zm33.99 14.928v-38.88h22.56c1.056 0 2.016.272 2.88.816a5.578 5.578 0 0 1 2.112 2.112c.544.864.816 1.824.816 2.88v16.224a5.538 5.538 0 0 1-.816 2.928 6.066 6.066 0 0 1-2.112 2.112c-.864.512-1.824.768-2.88.768h-18.624v11.04h-3.936Zm5.856-14.976h16.704c.512 0 .944-.176 1.296-.528.384-.384.576-.832.576-1.344v-16.224a1.69 1.69 0 0 0-.576-1.296 1.69 1.69 0 0 0-1.296-.576h-16.704c-.512 0-.96.192-1.344.576a1.69 1.69 0 0 0-.576 1.296v16.224c0 .512.192.96.576 1.344.384.352.832.528 1.344.528ZM164.49 206a5.8 5.8 0 0 1-2.928-.768 6.656 6.656 0 0 1-2.112-2.112 5.8 5.8 0 0 1-.768-2.928v-16.224c0-1.056.256-2.016.768-2.88a6.066 6.066 0 0 1 2.112-2.112 5.538 5.538 0 0 1 2.928-.816h16.704c1.088 0 2.064.272 2.928.816a5.578 5.578 0 0 1 2.112 2.112c.544.864.816 1.824.816 2.88v10.08h-24.432v6.144c0 .512.176.96.528 1.344.384.352.832.528 1.344.528h22.56V206h-22.56Zm-1.872-15.888h20.448v-6.144a1.69 1.69 0 0 0-.576-1.296 1.69 1.69 0 0 0-1.296-.576H164.49c-.512 0-.96.192-1.344.576a1.762 1.762 0 0 0-.528 1.296v6.144ZM192.061 206v-27.84h22.56c1.056 0 2.016.272 2.88.816a5.578 5.578 0 0 1 2.112 2.112c.544.864.816 1.824.816 2.88V206h-3.936v-22.032a1.69 1.69 0 0 0-.576-1.296 1.69 1.69 0 0 0-1.296-.576h-16.704c-.512 0-.96.192-1.344.576a1.69 1.69 0 0 0-.576 1.296V206h-3.936Zm58.164 0-12.576-34.56h4.128l10.128 27.744 10.08-27.744h4.704l10.128 27.744 10.032-27.744h4.224L278.497 206h-3.408l-10.752-29.52L253.585 206h-3.36Zm49.359 0a5.8 5.8 0 0 1-2.928-.768 6.656 6.656 0 0 1-2.112-2.112 5.8 5.8 0 0 1-.768-2.928v-16.224c0-1.056.256-2.016.768-2.88a6.066 6.066 0 0 1 2.112-2.112 5.538 5.538 0 0 1 2.928-.816h16.704c1.088 0 2.064.272 2.928.816a5.578 5.578 0 0 1 2.112 2.112c.544.864.816 1.824.816 2.88v16.224a5.538 5.538 0 0 1-.816 2.928 6.066 6.066 0 0 1-2.112 2.112c-.864.512-1.84.768-2.928.768h-16.704Zm0-3.936h16.704c.512 0 .944-.176 1.296-.528.384-.384.576-.832.576-1.344v-16.224a1.69 1.69 0 0 0-.576-1.296 1.69 1.69 0 0 0-1.296-.576h-16.704c-.512 0-.96.192-1.344.576a1.762 1.762 0 0 0-.528 1.296v16.224c0 .512.176.96.528 1.344.384.352.832.528 1.344.528ZM326.59 206v-22.032c0-1.056.256-2.016.768-2.88a6.066 6.066 0 0 1 2.112-2.112 5.538 5.538 0 0 1 2.928-.816h15.648v3.936h-15.648c-.512 0-.96.192-1.344.576a1.762 1.762 0 0 0-.528 1.296V206h-3.936Zm30.37 0a5.8 5.8 0 0 1-2.928-.768 6.656 6.656 0 0 1-2.112-2.112 5.8 5.8 0 0 1-.768-2.928V169.04h3.936v31.152c0 .512.176.96.528 1.344.384.352.832.528 1.344.528h4.704V206h-4.704Zm13.375 0c-1.088 0-2.08-.256-2.976-.768a6.656 6.656 0 0 1-2.112-2.112 5.8 5.8 0 0 1-.768-2.928v-16.224c0-1.056.256-2.016.768-2.88a6.066 6.066 0 0 1 2.112-2.112 5.624 5.624 0 0 1 2.976-.816h18.576v-9.12h3.936V206h-22.512Zm0-3.936h16.704c.512 0 .944-.176 1.296-.528.384-.384.576-.832.576-1.344v-16.224a1.69 1.69 0 0 0-.576-1.296 1.69 1.69 0 0 0-1.296-.576h-16.704c-.512 0-.96.192-1.344.576a1.762 1.762 0 0 0-.528 1.296v16.224c0 .512.176.96.528 1.344.384.352.832.528 1.344.528Z" fill="#fff"/><defs><clipPath id="a"><path fill="#fff" transform="translate(176 1)" d="M0 0h128v128H0z"/></clipPath></defs></svg>