<svg width="480" height="219" fill="none" xmlns="http://www.w3.org/2000/svg"><g clip-path="url(#a)" fill="#fff"><path d="M187.503 129c6.206 0 13.759-4.68 22.448-13.91 5.289-5.618 12.365-8.84 19.416-8.84h21.267c7.103 0 14.454 3.305 19.665 8.84 8.812 9.36 16.072 13.91 22.198 13.91 3.424 0 11.4-1.825 11.502-18.727.105-17.321-8.147-44.282-20.599-56.81-4.757-4.785-9.804-7.212-15.001-7.212-6.503 0-9.539 2.072-12.218 3.9-2.023 1.38-3.943 2.689-7.994 3.45 1.676-2.65 3.063-5.857 3.063-9.225 0-7.948-7.716-15.01-8.75-15.92-1.645-1.503-6.25-6.595-6.25-10.58 0-3.93 4.609-8.881 6.224-10.307a3.75 3.75 0 0 0-4.943-5.64c-.899.786-8.781 7.915-8.781 15.947 0 7.991 7.835 15.339 8.729 16.15l.052.047c1.613 1.411 6.219 6.335 6.219 10.302 0 3.306-3.26 7.333-5.254 9.375h-5.814c-4.656-.73-6.701-2.125-8.863-3.6-2.679-1.828-5.715-3.9-12.219-3.9-5.196 0-10.243 2.427-15 7.213-12.452 12.528-20.704 39.489-20.599 56.809.102 16.903 8.078 18.728 11.502 18.728Zm14.416-70.25c3.298-3.317 6.555-5 9.682-5 4.188 0 5.701 1.033 7.992 2.596 5.215 3.558 10.336 4.905 12.805 4.905h15.204c2.561 0 7.668-1.4 12.805-4.905 2.291-1.563 3.804-2.595 7.992-2.595 3.126 0 6.384 1.682 9.682 5 10.971 11.038 18.512 35.988 18.418 51.476-.034 5.611-1.284 11.273-4.002 11.273-1.763 0-6.923-1.126-16.737-11.551-6.7-7.117-15.858-11.199-25.126-11.199h-21.267c-9.11 0-18.177 4.082-24.877 11.199-9.814 10.425-15.148 11.551-16.986 11.551-2.718 0-3.969-5.662-4.003-11.273-.094-15.488 7.447-40.438 18.418-51.476Z"/><path d="M202.5 83.75h3.75v3.75a3.75 3.75 0 0 0 7.5 0v-3.75h3.75a3.75 3.75 0 0 0 0-7.5h-3.75V72.5a3.75 3.75 0 0 0-7.5 0v3.75h-3.75a3.75 3.75 0 0 0 0 7.5Zm67.499-7.5a3.75 3.75 0 1 0 0-7.5 3.75 3.75 0 0 0 0 7.5Zm0 14.999a3.75 3.75 0 1 0 0-7.5 3.75 3.75 0 0 0 0 7.5ZM262.5 83.75a3.75 3.75 0 1 0 0-7.5 3.75 3.75 0 0 0 0 7.5Zm14.999 0a3.75 3.75 0 1 0 0-7.5 3.75 3.75 0 0 0 0 7.5Zm-44.999 0h15a3.75 3.75 0 0 0 0-7.5h-15a3.75 3.75 0 0 0 0 7.5Z"/></g><path d="M97.797 206v-34.56h5.328l14.352 17.088 14.352-17.088h5.328V206h-3.888v-30.144l-15.792 18.768-15.792-18.768V206h-3.888Zm50.196 0a5.8 5.8 0 0 1-2.928-.768 6.656 6.656 0 0 1-2.112-2.112 5.8 5.8 0 0 1-.768-2.928V178.16h3.936v22.032c0 .512.176.96.528 1.344.384.352.832.528 1.344.528h16.704c.512 0 .96-.176 1.344-.528.384-.384.576-.832.576-1.344V178.16h3.936v22.032a5.538 5.538 0 0 1-.816 2.928 6.066 6.066 0 0 1-2.112 2.112c-.864.512-1.84.768-2.928.768h-16.704Zm33.327 0a5.8 5.8 0 0 1-2.928-.768 6.656 6.656 0 0 1-2.112-2.112 5.8 5.8 0 0 1-.768-2.928V169.04h3.936v31.152c0 .512.176.96.528 1.344.384.352.832.528 1.344.528h4.704V206h-4.704Zm14.532 0c-1.088 0-2.08-.256-2.976-.768a6.204 6.204 0 0 1-2.064-2.112 5.8 5.8 0 0 1-.768-2.928V169.04h3.936v9.12h12.048v3.936H193.98v18.096c0 .512.176.96.528 1.344.384.352.832.528 1.344.528h10.176V206h-10.176Zm14.066 0v-27.84h3.936V206h-3.936Zm0-33.024v-3.936h3.936v3.936h-3.936Zm8.862 44.064v-38.88h22.56c1.056 0 2.016.272 2.88.816a5.578 5.578 0 0 1 2.112 2.112c.544.864.816 1.824.816 2.88v16.224a5.538 5.538 0 0 1-.816 2.928 6.066 6.066 0 0 1-2.112 2.112c-.864.512-1.824.768-2.88.768h-18.624v11.04h-3.936Zm5.856-14.976h16.704c.512 0 .944-.176 1.295-.528.385-.384.577-.832.577-1.344v-16.224c0-.512-.192-.944-.577-1.296a1.687 1.687 0 0 0-1.295-.576h-16.704c-.512 0-.96.192-1.344.576a1.69 1.69 0 0 0-.576 1.296v16.224c0 .512.192.96.576 1.344.384.352.832.528 1.344.528ZM256.367 206a5.8 5.8 0 0 1-2.928-.768 6.656 6.656 0 0 1-2.112-2.112 5.8 5.8 0 0 1-.768-2.928V169.04h3.936v31.152c0 .512.176.96.528 1.344.384.352.832.528 1.344.528h4.704V206h-4.704Zm14.015 0a5.8 5.8 0 0 1-2.928-.768 6.656 6.656 0 0 1-2.112-2.112 5.8 5.8 0 0 1-.768-2.928v-10.08h24.384v-6.144a1.69 1.69 0 0 0-.576-1.296 1.69 1.69 0 0 0-1.296-.576h-22.512v-3.936h22.512c1.088 0 2.064.272 2.928.816a5.578 5.578 0 0 1 2.112 2.112c.544.864.816 1.824.816 2.88V206h-22.56Zm0-3.936h18.576v-8.016H268.51v6.144c0 .512.176.96.528 1.344.384.352.832.528 1.344.528Zm32.176 14.976v-3.984h17.376a1.69 1.69 0 0 0 1.296-.576 1.69 1.69 0 0 0 .576-1.296V206H303.23a5.8 5.8 0 0 1-2.928-.768 6.656 6.656 0 0 1-2.112-2.112 5.8 5.8 0 0 1-.768-2.928v-21.936h3.936v21.936c0 .512.176.96.528 1.344.384.352.832.528 1.344.528h16.704c.512 0 .944-.176 1.296-.528.384-.384.576-.832.576-1.344v-21.936h3.936v32.928c0 1.088-.256 2.064-.768 2.928a5.578 5.578 0 0 1-2.112 2.112c-.864.544-1.84.816-2.928.816h-17.376ZM335.584 206a5.8 5.8 0 0 1-2.928-.768 6.656 6.656 0 0 1-2.112-2.112 5.8 5.8 0 0 1-.768-2.928v-16.224c0-1.056.256-2.016.768-2.88a6.066 6.066 0 0 1 2.112-2.112 5.538 5.538 0 0 1 2.928-.816h16.704c1.088 0 2.064.272 2.928.816a5.578 5.578 0 0 1 2.112 2.112c.544.864.816 1.824.816 2.88v10.08h-24.432v6.144c0 .512.176.96.528 1.344.384.352.832.528 1.344.528h22.56V206h-22.56Zm-1.872-15.888h20.448v-6.144a1.69 1.69 0 0 0-.576-1.296 1.69 1.69 0 0 0-1.296-.576h-16.704c-.512 0-.96.192-1.344.576a1.762 1.762 0 0 0-.528 1.296v6.144ZM362.824 206v-22.032c0-1.056.256-2.016.768-2.88a6.066 6.066 0 0 1 2.112-2.112 5.538 5.538 0 0 1 2.928-.816h15.648v3.936h-15.648c-.512 0-.96.192-1.344.576a1.762 1.762 0 0 0-.528 1.296V206h-3.936Z" fill="#fff"/><defs><clipPath id="a"><path fill="#fff" transform="translate(176 1)" d="M0 0h128v128H0z"/></clipPath></defs></svg>