<svg width="480" height="187" fill="none" xmlns="http://www.w3.org/2000/svg"><g clip-path="url(#a)" fill="#fff"><path d="M240 119.666c-30.144 0-54.667-24.522-54.667-54.666S209.856 10.333 240 10.333c30.144 0 54.666 24.523 54.666 54.667 0 30.144-24.522 54.666-54.666 54.666ZM240 21c-24.262 0-44 19.738-44 44 0 24.261 19.738 44 44 44 24.261 0 44-19.739 44-44 0-24.262-19.739-44-44-44Z"/><path d="M240 30.333A5.335 5.335 0 0 1 234.667 25V6.333A5.335 5.335 0 0 1 240 1a5.336 5.336 0 0 1 5.334 5.333V25A5.336 5.336 0 0 1 240 30.333ZM298.667 70.334H280A5.335 5.335 0 0 1 274.667 65 5.335 5.335 0 0 1 280 59.667h18.667A5.335 5.335 0 0 1 304 65a5.335 5.335 0 0 1-5.333 5.334ZM240 129a5.335 5.335 0 0 1-5.333-5.333V105a5.335 5.335 0 0 1 10.667 0v18.667A5.336 5.336 0 0 1 240 129ZM200 70.334h-18.667A5.335 5.335 0 0 1 176 65a5.335 5.335 0 0 1 5.333-5.333H200A5.335 5.335 0 0 1 205.333 65 5.335 5.335 0 0 1 200 70.334ZM240 81c-8.821 0-16-7.179-16-16s7.179-16 16-16 16 7.179 16 16-7.179 16-16 16Zm0-21.333A5.342 5.342 0 0 0 234.667 65 5.342 5.342 0 0 0 240 70.333 5.342 5.342 0 0 0 245.333 65 5.342 5.342 0 0 0 240 59.667Z"/></g><path d="M84.216 174a5.8 5.8 0 0 1-2.928-.768 5.799 5.799 0 0 1-2.064-2.064 5.8 5.8 0 0 1-.768-2.928v-1.344h3.888v1.344c0 .512.176.96.528 1.344.384.352.832.528 1.344.528h23.04c.512 0 .944-.176 1.296-.528.384-.384.576-.832.576-1.344v-7.728a1.69 1.69 0 0 0-.576-1.296 1.762 1.762 0 0 0-1.296-.528h-23.04a5.8 5.8 0 0 1-2.928-.768 6.204 6.204 0 0 1-2.064-2.112c-.512-.864-.768-1.824-.768-2.88V145.2c0-1.056.256-2.016.768-2.88.512-.896 1.2-1.6 2.064-2.112a5.8 5.8 0 0 1 2.928-.768h23.04c1.056 0 2.016.256 2.88.768a5.578 5.578 0 0 1 2.112 2.112c.512.864.768 1.824.768 2.88v1.344h-3.888V145.2a1.69 1.69 0 0 0-.576-1.296 1.69 1.69 0 0 0-1.296-.576h-23.04c-.512 0-.96.192-1.344.576a1.762 1.762 0 0 0-.528 1.296v7.728c0 .512.176.944.528 1.296.384.352.832.528 1.344.528h23.04c1.056 0 2.016.272 2.88.816.896.512 1.6 1.2 2.112 2.064.512.864.768 1.824.768 2.88v7.728a5.8 5.8 0 0 1-.768 2.928 5.686 5.686 0 0 1-2.112 2.064c-.864.512-1.824.768-2.88.768h-23.04Zm33.853 0v-27.84h36.768c1.088 0 2.064.272 2.928.816a5.578 5.578 0 0 1 2.112 2.112c.512.864.768 1.824.768 2.88V174h-3.888v-22.032a1.69 1.69 0 0 0-.576-1.296c-.384-.384-.832-.576-1.344-.576h-11.568c-.512 0-.96.192-1.344.576a1.762 1.762 0 0 0-.528 1.296V174h-3.984v-22.032a1.69 1.69 0 0 0-.576-1.296 1.69 1.69 0 0 0-1.296-.576h-11.616c-.512 0-.96.192-1.344.576a1.762 1.762 0 0 0-.528 1.296V174h-3.984Zm52.585 0a5.8 5.8 0 0 1-2.928-.768 6.656 6.656 0 0 1-2.112-2.112 5.8 5.8 0 0 1-.768-2.928v-16.224c0-1.056.256-2.016.768-2.88a6.066 6.066 0 0 1 2.112-2.112 5.538 5.538 0 0 1 2.928-.816h16.704c1.088 0 2.064.272 2.928.816a5.578 5.578 0 0 1 2.112 2.112c.544.864.816 1.824.816 2.88v16.224a5.538 5.538 0 0 1-.816 2.928 6.066 6.066 0 0 1-2.112 2.112c-.864.512-1.84.768-2.928.768h-16.704Zm0-3.936h16.704c.512 0 .944-.176 1.296-.528.384-.384.576-.832.576-1.344v-16.224a1.69 1.69 0 0 0-.576-1.296 1.69 1.69 0 0 0-1.296-.576h-16.704c-.512 0-.96.192-1.344.576a1.762 1.762 0 0 0-.528 1.296v16.224c0 .512.176.96.528 1.344.384.352.832.528 1.344.528ZM202.951 174a5.8 5.8 0 0 1-2.928-.768 6.656 6.656 0 0 1-2.112-2.112 5.8 5.8 0 0 1-.768-2.928v-16.224c0-1.056.256-2.016.768-2.88a6.066 6.066 0 0 1 2.112-2.112 5.538 5.538 0 0 1 2.928-.816h16.704c1.088 0 2.064.272 2.928.816a5.578 5.578 0 0 1 2.112 2.112c.544.864.816 1.824.816 2.88v16.224a5.538 5.538 0 0 1-.816 2.928 6.066 6.066 0 0 1-2.112 2.112c-.864.512-1.84.768-2.928.768h-16.704Zm0-3.936h16.704c.512 0 .944-.176 1.296-.528.384-.384.576-.832.576-1.344v-16.224a1.69 1.69 0 0 0-.576-1.296 1.69 1.69 0 0 0-1.296-.576h-16.704c-.512 0-.96.192-1.344.576a1.762 1.762 0 0 0-.528 1.296v16.224c0 .512.176.96.528 1.344.384.352.832.528 1.344.528ZM235.157 174c-1.088 0-2.08-.256-2.976-.768a6.204 6.204 0 0 1-2.064-2.112 5.8 5.8 0 0 1-.768-2.928V137.04h3.936v9.12h12.048v3.936h-12.048v18.096c0 .512.176.96.528 1.344.384.352.832.528 1.344.528h10.176V174h-10.176Zm14.162 0v-36.96h3.936v9.12h18.624c1.056 0 2.016.272 2.88.816a5.578 5.578 0 0 1 2.112 2.112c.544.864.816 1.824.816 2.88V174h-3.936v-22.032a1.69 1.69 0 0 0-.576-1.296 1.69 1.69 0 0 0-1.296-.576h-16.704c-.512 0-.96.192-1.344.576a1.69 1.69 0 0 0-.576 1.296V174h-3.936Zm45.332 0v-34.56h31.536v3.888h-27.648v11.424h22.224v3.936h-22.224V174h-3.888Zm34.592 0v-34.512h28.8c1.056 0 2.016.272 2.88.816.896.512 1.6 1.2 2.112 2.064.512.864.768 1.824.768 2.88v10.128c0 1.056-.256 2.016-.768 2.88a6.066 6.066 0 0 1-2.112 2.112c-.864.512-1.824.768-2.88.768h-24.912V174h-3.888Zm5.76-16.8h23.04c.512 0 .944-.176 1.296-.528a1.69 1.69 0 0 0 .576-1.296v-10.128a1.69 1.69 0 0 0-.576-1.296 1.69 1.69 0 0 0-1.296-.576h-23.04c-.512 0-.96.192-1.344.576a1.762 1.762 0 0 0-.528 1.296v10.128c0 .512.176.944.528 1.296.384.352.832.528 1.344.528Zm37.728 16.8a5.8 5.8 0 0 1-2.928-.768 5.799 5.799 0 0 1-2.064-2.064 5.8 5.8 0 0 1-.768-2.928v-1.344h3.888v1.344c0 .512.176.96.528 1.344.384.352.832.528 1.344.528h23.04c.512 0 .944-.176 1.296-.528.384-.384.576-.832.576-1.344v-7.728a1.69 1.69 0 0 0-.576-1.296 1.762 1.762 0 0 0-1.296-.528h-23.04a5.8 5.8 0 0 1-2.928-.768 6.204 6.204 0 0 1-2.064-2.112c-.512-.864-.768-1.824-.768-2.88V145.2c0-1.056.256-2.016.768-2.88.512-.896 1.2-1.6 2.064-2.112a5.8 5.8 0 0 1 2.928-.768h23.04c1.056 0 2.016.256 2.88.768a5.578 5.578 0 0 1 2.112 2.112c.512.864.768 1.824.768 2.88v1.344h-3.888V145.2a1.69 1.69 0 0 0-.576-1.296 1.69 1.69 0 0 0-1.296-.576h-23.04c-.512 0-.96.192-1.344.576a1.762 1.762 0 0 0-.528 1.296v7.728c0 .512.176.944.528 1.296.384.352.832.528 1.344.528h23.04c1.056 0 2.016.272 2.88.816.896.512 1.6 1.2 2.112 2.064.512.864.768 1.824.768 2.88v7.728a5.8 5.8 0 0 1-.768 2.928 5.686 5.686 0 0 1-2.112 2.064c-.864.512-1.824.768-2.88.768h-23.04Z" fill="#fff"/><defs><clipPath id="a"><path fill="#fff" transform="translate(176 1)" d="M0 0h128v128H0z"/></clipPath></defs></svg>